<svg width="512" height="512" viewBox="0 0 512 512" fill="none" xmlns="http://www.w3.org/2000/svg">
<path d="M416 272C469.019 272 512 229.019 512 176C512 122.981 469.019 80 416 80C362.981 80 320 122.981 320 176C320 229.019 362.981 272 416 272Z" fill="#FFC107"/>
<path d="M405.512 241.516L406.759 247.691L413.056 247.53C462.526 246.26 504.5 286.319 504.5 336C504.5 384.786 464.786 424.5 416 424.5H112C54.3821 424.5 7.5 377.618 7.5 320C7.5 263.221 53.0375 216.873 109.49 215.53L114.28 215.416L116.19 211.023C140.188 155.83 194.966 119.5 256 119.5C329.496 119.5 391.27 170.978 405.512 241.516Z" fill="#E3F2FD" stroke="#A1C8E4" stroke-width="15"/>
</svg>
