<svg width="513" height="513" viewBox="0 0 513 513" fill="none" xmlns="http://www.w3.org/2000/svg">
<g clip-path="url(#clip0)">
<path d="M504.576 170.054C499.52 166.79 493.056 166.694 487.904 169.734C481.088 173.734 472.896 175.846 464.32 175.846C437.856 175.846 416.32 154.31 416.32 127.846C416.32 119.238 418.432 111.078 422.432 104.262C425.472 99.078 425.344 92.646 422.112 87.558C418.848 82.502 412.96 79.654 407.104 80.23C357.632 84.902 320.32 126.022 320.32 175.846C320.32 228.774 363.392 271.846 416.32 271.846C466.144 271.846 507.264 234.534 511.936 185.03C512.48 179.078 509.664 173.254 504.576 170.054Z" fill="#B0BEC5"/>
<path d="M405.512 241.362L406.759 247.537L413.056 247.376C462.526 246.106 504.5 286.165 504.5 335.846C504.5 384.632 464.786 424.346 416 424.346H112C54.3821 424.346 7.5 377.464 7.5 319.846C7.5 263.067 53.0375 216.719 109.49 215.376L114.28 215.262L116.19 210.869C140.188 155.676 194.966 119.346 256 119.346C329.496 119.346 391.27 170.824 405.512 241.362Z" fill="#E3F2FD" stroke="#A1C8E4" stroke-width="15"/>
</g>
<defs>
<clipPath id="clip0">
<rect width="512.003" height="512.003" fill="white"/>
</clipPath>
</defs>
</svg>
