<svg width="512" height="512" viewBox="0 0 512 512" fill="none" xmlns="http://www.w3.org/2000/svg">
<path d="M412.864 176.032C397.92 102.016 333.088 48 256 48C191.968 48 134.496 86.112 109.312 144.032C48.8 145.472 0 195.136 0 256C0 317.76 50.24 368 112 368H416C468.928 368 512 324.928 512 272C512 218.016 466.464 174.656 412.864 176.032Z" fill="#90CAF9"/>
<path d="M324.12 306.074L325.734 312.397L332.253 312.087C333.464 312.029 334.713 312 336 312C375.71 312 408 344.29 408 384C408 423.71 375.71 456 336 456H96C47.4903 456 8 416.51 8 368C8 319.49 47.4903 280 96 280H96.0024H96.0049H96.0073H96.0098H96.0122H96.0146H96.0171H96.0195H96.0219H96.0244H96.0268H96.0293H96.0317H96.0341H96.0366H96.039H96.0414H96.0439H96.0463H96.0488H96.0512H96.0536H96.0561H96.0585H96.0609H96.0634H96.0658H96.0683H96.0707H96.0731H96.0756H96.078H96.0804H96.0829H96.0853H96.0878H96.0902H96.0926H96.0951H96.0975H96.0999H96.1024H96.1048H96.1072H96.1097H96.1121H96.1146H96.117H96.1194H96.1219H96.1243H96.1267H96.1292H96.1316H96.1341H96.1365H96.1389H96.1414H96.1438H96.1462H96.1487H96.1511H96.1536H96.156H96.1584H96.1609H96.1633H96.1657H96.1682H96.1706H96.1731H96.1755H96.1779H96.1804H96.1828H96.1852H96.1877H96.1901H96.1926H96.195H96.1974H96.1999H96.2023H96.2048H96.2072H96.2096H96.2121H96.2145H96.2169H96.2194H96.2218H96.2243H96.2267H96.2291H96.2316H96.234H96.2364H96.2389H96.2413H96.2438H96.2462H96.2486H96.2511H96.2535H96.2559H96.2584H96.2608H96.2633H96.2657H96.2681H96.2706H96.273H96.2754H96.2779H96.2803H96.2828H96.2852H96.2876H96.2901H96.2925H96.2949H96.2974H96.2998H96.3023H96.3047H96.3071H96.3096H96.312H96.3144H96.3169H96.3193H96.3217H96.3242H96.3266H96.3291H96.3315H96.3339H96.3364H96.3388H96.3412H96.3437H96.3461H96.3486H96.351H96.3534H96.3559H96.3583H96.3607H96.3632H96.3656H96.3681H96.3705H96.3729H96.3754H96.3778H96.3802H96.3827H96.3851H96.3876H96.39H96.3924H96.3949H96.3973H96.3997H96.4022H96.4046H96.4071H96.4095H96.4119H96.4144H96.4168H96.4193H96.4217H96.4241H96.4266H96.429H96.4314H96.4339H96.4363H96.4388H96.4412H96.4436H96.4461H96.4485H96.4509H96.4534H96.4558H96.4583H96.4607H96.4631H96.4656H96.468H96.4704H96.4729H96.4753H96.4778H96.4802H96.4826H96.4851H96.4875H96.4899H96.4924H96.4948H96.4973H96.4997H96.5021H96.5046H96.507H96.5094H96.5119H96.5143H96.5168H96.5192H96.5216H96.5241H96.5265H96.5289H96.5314H96.5338H96.5362H96.5387H96.5411H96.5436H96.546H96.5484H96.5509H96.5533H96.5557H96.5582H96.5606H96.5631H96.5655H96.5679H96.5704H96.5728H96.5752H96.5777H96.5801H96.5826H96.585H96.5874H96.5899H96.5923H96.5947H96.5972H96.5996H96.6021H96.6045H96.6069H96.6094H96.6118H96.6143H96.6167H96.6191H96.6216H96.624H96.6264H96.6289H96.6313H96.6338H96.6362H96.6386H96.6411H96.6435H96.6459H96.6484H96.6508H96.6533H96.6557H96.6581H96.6606H96.663H96.6654H96.6679H96.6703H96.6728H96.6752H96.6776H96.6801H96.6825H96.6849H96.6874H96.6898H96.6923H96.6947H96.6971H96.6996H96.702H96.7044H96.7069H96.7093H96.7118H96.7142H96.7166H96.7191H96.7215H96.7239H96.7264H96.7288H96.7312H96.7337H96.7361H96.7386H96.741H96.7434H96.7459H96.7483H96.7507H96.7532H96.7556H96.7581H96.7605H96.7629H96.7654H96.7678H96.7702H96.7727H96.7751H96.7776H96.78H96.7824H96.7849H96.7873H96.7897H96.7922H96.7946H96.7971H96.7995H96.8019H96.8044H96.8068H96.8092H96.8117H96.8141H96.8166H96.819H96.8214H96.8239H96.8263H96.8288H96.8312H96.8336H96.8361H96.8385H96.8409H96.8434H96.8458H96.8483H96.8507H96.8531H96.8556H96.858H96.8604H96.8629H96.8653H96.8678H96.8702H96.8726H96.8751H96.8775H96.8799H96.8824H96.8848H96.8873H96.8897H96.8921H96.8946H96.897H96.8994H96.9019H96.9043H96.9068H96.9092H96.9116H96.9141H96.9165H96.9189H96.9214H96.9238H96.9263H96.9287H96.9311H96.9336H96.936H96.9384H96.9409H96.9433H96.9457H96.9482H96.9506H96.9531H96.9555H96.9579H96.9604H96.9628H96.9652H96.9677H96.9701H96.9726H96.975H96.9774H96.9799H96.9823H96.9847H96.9872H96.9896H96.9921H96.9945H96.9969H96.9994H97.0018H97.0042H97.0067H97.0091H97.0116H97.014H97.0164H97.0189H97.0213H97.0238H97.0262H97.0286H97.0311H97.0335H97.0359H97.0384H97.0408H97.0433H97.0457H97.0481H97.0506H97.053H97.0554H97.0579H97.0603H97.0628H97.0652H97.0676H97.0701H97.0725H97.0749H97.0774H97.0798H97.0823H97.0847H97.0871H97.0896H97.092H97.0944H97.0969H97.0993H97.1018H97.1042H97.1066H97.1091H97.1115H97.1139H97.1164H97.1188H97.1213H97.1237H97.1261H97.1286H97.131H97.1334H97.1359H97.1383H97.1408H97.1432H97.1456H97.1481H97.1505H97.1529H97.1554H97.1578H97.1602H97.1627H97.1651H97.1676H97.17H97.1724H97.1749H97.1773H97.1797H97.1822H97.1846H97.1871H97.1895H97.1919H97.1944H97.1968H97.1992H97.2017H97.2041H97.2066H97.209H97.2114H97.2139H97.2163H97.2188H97.2212H97.2236H97.2261H97.2285H97.2309H97.2334H97.2358H97.2383H97.2407H97.2431H97.2456H97.248H101.851L104.165 276.02C125.538 239.248 165.291 216 208 216C263.312 216 310.775 253.77 324.12 306.074Z" fill="#E3F2FD" stroke="#A1C8E4" stroke-width="16"/>
</svg>
