<svg width="512" height="512" viewBox="0 0 512 512" fill="none" xmlns="http://www.w3.org/2000/svg">
<path d="M419.254 119.78C405.273 50.5345 344.619 0 272.5 0C212.595 0 158.827 35.6556 135.266 89.8424C78.6547 91.1896 33 137.653 33 194.594C33 252.373 80.0019 299.375 137.781 299.375H422.188C471.704 299.375 512 259.079 512 209.562C512 159.058 469.399 118.493 419.254 119.78Z" fill="#90CAF9"/>
<path d="M285.714 196.689L287.227 202.62L293.341 202.326C294.4 202.275 295.494 202.25 296.625 202.25C331.44 202.25 359.75 230.56 359.75 265.375C359.75 300.19 331.44 328.5 296.625 328.5H84.75C42.1666 328.5 7.5 293.834 7.5 251.25C7.5 208.666 42.1666 174 84.75 174H84.7522H84.7543H84.7565H84.7586H84.7608H84.7629H84.7651H84.7672H84.7694H84.7715H84.7737H84.7758H84.778H84.7801H84.7823H84.7844H84.7866H84.7887H84.7909H84.793H84.7952H84.7973H84.7995H84.8017H84.8038H84.806H84.8081H84.8103H84.8124H84.8146H84.8167H84.8189H84.821H84.8232H84.8253H84.8275H84.8296H84.8318H84.8339H84.8361H84.8382H84.8404H84.8425H84.8447H84.8468H84.849H84.8512H84.8533H84.8555H84.8576H84.8598H84.8619H84.8641H84.8662H84.8684H84.8705H84.8727H84.8748H84.877H84.8791H84.8813H84.8834H84.8856H84.8877H84.8899H84.892H84.8942H84.8963H84.8985H84.9006H84.9028H84.905H84.9071H84.9093H84.9114H84.9136H84.9157H84.9179H84.92H84.9222H84.9243H84.9265H84.9286H84.9308H84.9329H84.9351H84.9372H84.9394H84.9415H84.9437H84.9458H84.948H84.9501H84.9523H84.9544H84.9566H84.9587H84.9609H84.9631H84.9652H84.9674H84.9695H84.9717H84.9738H84.976H84.9781H84.9803H84.9824H84.9846H84.9867H84.9889H84.991H84.9932H84.9953H84.9975H84.9996H85.0018H85.0039H85.0061H85.0082H85.0104H85.0126H85.0147H85.0169H85.019H85.0212H85.0233H85.0255H85.0276H85.0298H85.0319H85.0341H85.0362H85.0384H85.0405H85.0427H85.0448H85.047H85.0491H85.0513H85.0534H85.0556H85.0577H85.0599H85.062H85.0642H85.0663H85.0685H85.0706H85.0728H85.075H85.0771H85.0793H85.0814H85.0836H85.0857H85.0879H85.09H85.0922H85.0943H85.0965H85.0986H85.1008H85.1029H85.1051H85.1072H85.1094H85.1115H85.1137H85.1158H85.118H85.1201H85.1223H85.1244H85.1266H85.1288H85.1309H85.1331H85.1352H85.1374H85.1395H85.1417H85.1438H85.146H85.1481H85.1503H85.1524H85.1546H85.1567H85.1589H85.161H85.1632H85.1653H85.1675H85.1696H85.1718H85.1739H85.1761H85.1782H85.1804H85.1825H85.1847H85.1869H85.189H85.1912H85.1933H85.1955H85.1976H85.1998H85.2019H85.2041H85.2062H85.2084H85.2105H85.2127H85.2148H85.217H85.2191H85.2213H85.2234H85.2256H85.2277H85.2299H85.232H85.2342H85.2363H85.2385H85.2406H85.2428H85.2449H85.2471H85.2493H85.2514H85.2536H85.2557H85.2579H85.26H85.2622H85.2643H85.2665H85.2686H85.2708H85.2729H85.2751H85.2772H85.2794H85.2815H85.2837H85.2858H85.288H85.2901H85.2923H85.2944H85.2966H85.2987H85.3009H85.3031H85.3052H85.3074H85.3095H85.3117H85.3138H85.316H85.3181H85.3203H85.3224H85.3246H85.3267H85.3289H85.331H85.3332H85.3353H85.3375H85.3396H85.3418H85.3439H85.3461H85.3482H85.3504H85.3525H85.3547H85.3568H85.359H85.3612H85.3633H85.3655H85.3676H85.3698H85.3719H85.3741H85.3762H85.3784H85.3805H85.3827H85.3848H85.387H85.3891H85.3913H85.3934H85.3956H85.3977H85.3999H85.402H85.4042H85.4063H85.4085H85.4106H85.4128H85.4149H85.4171H85.4193H85.4214H85.4236H85.4257H85.4279H85.43H85.4322H85.4343H85.4365H85.4386H85.4408H85.4429H85.4451H85.4472H85.4494H85.4515H85.4537H85.4558H85.458H85.4601H85.4623H85.4644H85.4666H85.4687H85.4709H85.473H85.4752H85.4774H85.4795H85.4817H85.4838H85.486H85.4881H85.4903H85.4924H85.4946H85.4967H85.4989H85.501H85.5032H85.5053H85.5075H85.5096H85.5118H85.5139H85.5161H85.5182H85.5204H85.5225H85.5247H85.5268H85.529H85.5312H85.5333H85.5355H85.5376H85.5398H85.5419H85.5441H85.5462H85.5484H85.5505H85.5527H85.5548H85.557H85.5591H85.5613H85.5634H85.5656H85.5677H85.5699H85.572H85.5742H85.5763H85.5785H85.5806H85.5828H85.5849H85.5871H85.5892H85.5914H85.5936H85.5957H85.5979H85.6H85.6022H85.6043H85.6065H85.6086H85.6108H85.6129H85.6151H85.6172H85.6194H85.6215H85.6237H85.6258H85.628H85.6301H85.6323H85.6344H85.6366H85.6387H85.6409H85.6431H85.6452H85.6474H85.6495H85.6517H85.6538H85.656H85.6581H85.6603H85.6624H85.6646H85.6667H85.6689H85.671H85.6732H85.6753H85.6775H85.6796H85.6818H85.6839H85.6861H85.6882H85.6904H85.6925H85.6947H85.6968H85.699H85.7012H85.7033H85.7055H85.7076H85.7098H85.7119H85.7141H85.7162H85.7184H85.7205H85.7227H85.7248H85.727H85.7291H85.7313H85.7334H85.7356H85.7377H85.7399H85.742H85.7442H85.7463H85.7485H85.7506H85.7528H85.755H85.7571H85.7593H85.7614H85.7636H85.7657H85.7679H85.77H85.7722H85.7743H85.7765H85.7786H85.7808H85.7829H85.7851H85.7872H85.7894H85.7915H85.7937H85.7958H85.798H85.8001H85.8023H85.8045H85.8066H85.8088H85.8109H85.8131H85.8152H85.8174H85.8195H85.8217H85.8238H85.826H85.8281H85.8303H85.8324H85.8346H85.8367H85.8389H85.841H85.8432H85.8453H85.8475H85.8496H85.8518H90.1674L92.3361 170.269C111.127 137.939 146.08 117.5 183.625 117.5C232.253 117.5 273.981 150.707 285.714 196.689Z" fill="#E3F2FD" stroke="#A1C8E4" stroke-width="15"/>
<path d="M375.848 368.912C365.384 384.048 341 421.52 341 442C341 468.464 362.536 490 389 490C415.464 490 437 468.464 437 442C437 421.52 412.616 384.048 402.152 368.912C396.232 360.272 381.768 360.272 375.848 368.912Z" fill="#2196F3"/>
<path d="M231.848 368.912C221.352 384.048 197 421.52 197 442C197 468.464 218.536 490 245 490C271.464 490 293 468.464 293 442C293 421.52 268.648 384.048 258.152 368.912C252.2 360.272 237.8 360.272 231.848 368.912Z" fill="#2196F3"/>
<path d="M87.848 368.912C77.352 384.048 53 421.52 53 442C53 468.464 74.536 490 101 490C127.464 490 149 468.464 149 442C149 421.52 124.648 384.048 114.152 368.912C108.2 360.272 93.8 360.272 87.848 368.912Z" fill="#2196F3"/>
</svg>
