<svg width="512" height="512" viewBox="0 0 512 512" fill="none" xmlns="http://www.w3.org/2000/svg">
<path d="M416 192C469.019 192 512 149.019 512 96C512 42.9807 469.019 0 416 0C362.981 0 320 42.9807 320 96C320 149.019 362.981 192 416 192Z" fill="#FFC107"/>
<path d="M405.022 161.612L406.354 168.227L413.099 168.029C414.052 168.001 414.962 168 416 168C464.51 168 504 207.49 504 256C504 304.51 464.51 344 416 344H112C54.6583 344 8 297.342 8 240C8 183.493 53.32 137.367 109.502 136.03L114.611 135.908L116.648 131.222C140.568 76.2111 195.166 40 256 40C329.259 40 390.858 91.3106 405.022 161.612Z" fill="#E3F2FD" stroke="#A1C8E4" stroke-width="16"/>
<path d="M386.848 390.912C376.384 406.048 352 443.52 352 464C352 490.464 373.536 512 400 512C426.464 512 448 490.464 448 464C448 443.52 423.616 406.048 413.152 390.912C407.232 382.272 392.768 382.272 386.848 390.912Z" fill="#2196F3"/>
<path d="M242.848 390.912C232.352 406.048 208 443.52 208 464C208 490.464 229.536 512 256 512C282.464 512 304 490.464 304 464C304 443.52 279.648 406.048 269.152 390.912C263.2 382.272 248.8 382.272 242.848 390.912Z" fill="#2196F3"/>
<path d="M98.848 390.912C88.352 406.048 64 443.52 64 464C64 490.464 85.536 512 112 512C138.464 512 160 490.464 160 464C160 443.52 135.648 406.048 125.152 390.912C119.2 382.272 104.8 382.272 98.848 390.912Z" fill="#2196F3"/>
</svg>
