<svg width="512" height="512" viewBox="0 0 512 512" fill="none" xmlns="http://www.w3.org/2000/svg">
<path d="M504.288 90.053C499.232 86.789 492.768 86.693 487.616 89.733C480.768 93.733 472.608 95.845 464 95.845C437.536 95.845 416 74.309 416 47.845C416 39.237 418.112 31.077 422.112 24.261C425.152 19.077 425.024 12.645 421.792 7.55701C418.528 2.50101 412.64 -0.346993 406.784 0.229007C357.312 4.90101 320 46.021 320 95.845C320 148.773 363.072 191.845 416 191.845C465.824 191.845 506.944 154.533 511.616 105.029C512.192 99.077 509.344 93.253 504.288 90.053Z" fill="#B0BEC5"/>
<path d="M405.512 161.358L406.761 167.56L413.085 167.374C414.046 167.345 414.963 167.345 416 167.345C464.786 167.345 504.5 207.059 504.5 255.845C504.5 304.631 464.786 344.345 416 344.345H112C54.3821 344.345 7.5 297.463 7.5 239.845C7.5 183.066 53.0375 136.718 109.49 135.375L114.28 135.261L116.19 130.868C140.188 75.6749 194.966 39.345 256 39.345C329.498 39.345 391.301 90.8247 405.512 161.358Z" fill="#E3F2FD" stroke="#A1C8E4" stroke-width="15"/>
<path d="M386.848 390.757C376.384 405.893 352 443.365 352 463.845C352 490.309 373.536 511.845 400 511.845C426.464 511.845 448 490.309 448 463.845C448 443.365 423.616 405.893 413.152 390.757C407.232 382.117 392.768 382.117 386.848 390.757Z" fill="#2196F3"/>
<path d="M242.848 390.757C232.352 405.893 208 443.365 208 463.845C208 490.309 229.536 511.845 256 511.845C282.464 511.845 304 490.309 304 463.845C304 443.365 279.648 405.893 269.152 390.757C263.2 382.117 248.8 382.117 242.848 390.757Z" fill="#2196F3"/>
<path d="M98.848 390.757C88.352 405.893 64 443.365 64 463.845C64 490.309 85.536 511.845 112 511.845C138.464 511.845 160 490.309 160 463.845C160 443.365 135.648 405.893 125.152 390.757C119.2 382.117 104.8 382.117 98.848 390.757Z" fill="#2196F3"/>
</svg>
