<svg width="512" height="512" viewBox="0 0 512 512" fill="none" xmlns="http://www.w3.org/2000/svg">
<path d="M416 192C469.019 192 512 149.019 512 96C512 42.9807 469.019 0 416 0C362.981 0 320 42.9807 320 96C320 149.019 362.981 192 416 192Z" fill="#FFC107"/>
<path d="M405.512 161.513L406.761 167.715L413.085 167.529C414.046 167.5 414.963 167.5 416 167.5C464.786 167.5 504.5 207.214 504.5 256C504.5 304.786 464.786 344.5 416 344.5H112C54.3821 344.5 7.5 297.618 7.5 240C7.5 183.221 53.0375 136.873 109.49 135.53L114.28 135.416L116.19 131.023C140.188 75.8299 194.966 39.5 256 39.5C329.498 39.5 391.301 90.9797 405.512 161.513Z" fill="#E3F2FD" stroke="#A1C8E4" stroke-width="15"/>
<path d="M205.152 358.88C202.144 354.56 197.248 352 192 352H160V272C160 264.256 154.464 257.632 146.848 256.256C139.296 254.976 131.712 259.136 128.992 266.368L80.992 394.368C79.136 399.264 79.84 404.8 82.816 409.12C85.856 413.44 90.752 416 96 416H128V496C128 503.744 133.536 510.368 141.152 511.744C142.112 511.904 143.072 512 144 512C150.56 512 156.608 507.936 158.976 501.632L206.976 373.632C208.8 368.704 208.128 363.2 205.152 358.88Z" fill="#FFC107"/>
<path d="M429.152 358.88C426.144 354.56 421.248 352 416 352H384V272C384 264.256 378.464 257.632 370.848 256.256C363.296 254.976 355.712 259.136 352.992 266.368L304.992 394.368C303.136 399.264 303.84 404.8 306.816 409.12C309.856 413.44 314.752 416 320 416H352V496C352 503.744 357.536 510.368 365.152 511.744C366.112 511.904 367.072 512 368 512C374.56 512 380.608 507.936 382.976 501.632L430.976 373.632C432.8 368.704 432.128 363.2 429.152 358.88Z" fill="#FFC107"/>
</svg>
