<svg width="512" height="512" viewBox="0 0 512 512" fill="none" xmlns="http://www.w3.org/2000/svg">
<path d="M504.288 90.053C499.232 86.789 492.768 86.693 487.616 89.733C480.768 93.733 472.608 95.845 464 95.845C437.536 95.845 416 74.309 416 47.845C416 39.237 418.112 31.077 422.112 24.261C425.152 19.077 425.024 12.645 421.792 7.55701C418.528 2.50101 412.64 -0.346993 406.784 0.229007C357.312 4.90101 320 46.021 320 95.845C320 148.773 363.072 191.845 416 191.845C465.824 191.845 506.944 154.533 511.616 105.029C512.192 99.077 509.344 93.253 504.288 90.053Z" fill="#B0BEC5"/>
<path d="M405.512 161.358L406.761 167.56L413.085 167.374C414.046 167.345 414.963 167.345 416 167.345C464.786 167.345 504.5 207.059 504.5 255.845C504.5 304.631 464.786 344.345 416 344.345H112C54.3821 344.345 7.5 297.463 7.5 239.845C7.5 183.066 53.0375 136.718 109.49 135.375L114.28 135.261L116.19 130.868C140.188 75.6749 194.966 39.345 256 39.345C329.498 39.345 391.301 90.8247 405.512 161.358Z" fill="#E3F2FD" stroke="#A1C8E4" stroke-width="15"/>
<path d="M205.152 358.725C202.144 354.405 197.248 351.845 192 351.845H160V271.845C160 264.101 154.464 257.477 146.848 256.101C139.296 254.821 131.712 258.981 128.992 266.213L80.992 394.213C79.136 399.109 79.84 404.645 82.816 408.965C85.856 413.285 90.752 415.845 96 415.845H128V495.845C128 503.589 133.536 510.213 141.152 511.589C142.112 511.749 143.072 511.845 144 511.845C150.56 511.845 156.608 507.781 158.976 501.477L206.976 373.477C208.8 368.549 208.128 363.045 205.152 358.725Z" fill="#FFC107"/>
<path d="M429.152 358.725C426.144 354.405 421.248 351.845 416 351.845H384V271.845C384 264.101 378.464 257.477 370.848 256.101C363.296 254.821 355.712 258.981 352.992 266.213L304.992 394.213C303.136 399.109 303.84 404.645 306.816 408.965C309.856 413.285 314.752 415.845 320 415.845H352V495.845C352 503.589 357.536 510.213 365.152 511.589C366.112 511.749 367.072 511.845 368 511.845C374.56 511.845 380.608 507.781 382.976 501.477L430.976 373.477C432.8 368.549 432.128 363.045 429.152 358.725Z" fill="#FFC107"/>
</svg>
