<svg width="512" height="512" viewBox="0 0 512 512" fill="none" xmlns="http://www.w3.org/2000/svg">
<path d="M416 192C469.019 192 512 149.019 512 96C512 42.9807 469.019 0 416 0C362.981 0 320 42.9807 320 96C320 149.019 362.981 192 416 192Z" fill="#FFC107"/>
<path d="M405.512 161.513L406.761 167.715L413.085 167.529C414.046 167.5 414.963 167.5 416 167.5C464.786 167.5 504.5 207.214 504.5 256C504.5 304.786 464.786 344.5 416 344.5H112C54.3821 344.5 7.5 297.618 7.5 240C7.5 183.221 53.0375 136.873 109.49 135.53L114.28 135.416L116.19 131.023C140.188 75.8299 194.966 39.5 256 39.5C329.498 39.5 391.301 90.9797 405.512 161.513Z" fill="#E3F2FD" stroke="#A1C8E4" stroke-width="15"/>
<path d="M275.136 288C270.688 280.32 260.896 277.696 253.28 282.144L208 308.288V256C208 247.168 200.832 240 192 240C183.168 240 176 247.168 176 256V308.288L130.72 282.144C123.072 277.696 113.28 280.32 108.864 288C104.448 295.648 107.072 305.44 114.72 309.856L160.032 336L114.72 362.144C107.072 366.56 104.448 376.352 108.864 384C111.84 389.12 117.216 392 122.752 392C125.472 392 128.224 391.328 130.752 389.856L176 363.712V416C176 424.832 183.168 432 192 432C200.832 432 208 424.832 208 416V363.712L253.28 389.856C255.808 391.328 258.56 392 261.28 392C266.816 392 272.192 389.12 275.168 384C279.584 376.352 276.96 366.56 269.312 362.144L223.968 336L269.28 309.856C276.928 305.44 279.552 295.648 275.136 288Z" fill="#CFD8DC"/>
<path d="M417.568 458.144L399.968 448L417.568 437.856C425.216 433.44 427.84 423.68 423.424 416C419.008 408.32 409.216 405.696 401.568 410.144L384 420.288V400C384 391.168 376.832 384 368 384C359.168 384 352 391.168 352 400V420.288L334.432 410.144C326.816 405.728 316.992 408.352 312.608 416C308.16 423.648 310.784 433.44 318.464 437.856L336.032 448L318.432 458.144C310.784 462.56 308.16 472.352 312.608 480C315.552 485.12 320.96 488 326.464 488C329.184 488 331.936 487.328 334.464 485.856L352 475.712V496C352 504.832 359.168 512 368 512C376.832 512 384 504.832 384 496V475.712L401.568 485.856C404.096 487.328 406.848 488 409.568 488C415.072 488 420.48 485.12 423.424 480C427.84 472.352 425.216 462.56 417.568 458.144Z" fill="#CFD8DC"/>
</svg>
