<svg width="512" height="512" viewBox="0 0 512 512" fill="none" xmlns="http://www.w3.org/2000/svg">
<path d="M504.288 90.053C499.232 86.789 492.768 86.693 487.616 89.733C480.768 93.733 472.608 95.845 464 95.845C437.536 95.845 416 74.309 416 47.845C416 39.237 418.112 31.077 422.112 24.261C425.152 19.077 425.024 12.645 421.792 7.55701C418.528 2.50101 412.64 -0.346993 406.784 0.229007C357.312 4.90101 320 46.021 320 95.845C320 148.773 363.072 191.845 416 191.845C465.824 191.845 506.944 154.533 511.616 105.029C512.192 99.077 509.344 93.253 504.288 90.053Z" fill="#B0BEC5"/>
<path d="M405.512 161.358L406.761 167.56L413.085 167.374C414.046 167.345 414.963 167.345 416 167.345C464.786 167.345 504.5 207.059 504.5 255.845C504.5 304.631 464.786 344.345 416 344.345H112C54.3821 344.345 7.5 297.463 7.5 239.845C7.5 183.066 53.0375 136.718 109.49 135.375L114.28 135.261L116.19 130.868C140.188 75.6749 194.966 39.345 256 39.345C329.498 39.345 391.301 90.8247 405.512 161.358Z" fill="#E3F2FD" stroke="#A1C8E4" stroke-width="15"/>
<path d="M275.136 287.845C270.688 280.165 260.896 277.541 253.28 281.989L208 308.133V255.845C208 247.013 200.832 239.845 192 239.845C183.168 239.845 176 247.013 176 255.845V308.133L130.72 281.989C123.072 277.541 113.28 280.165 108.864 287.845C104.448 295.493 107.072 305.285 114.72 309.701L160.032 335.845L114.72 361.989C107.072 366.405 104.448 376.197 108.864 383.845C111.84 388.965 117.216 391.845 122.752 391.845C125.472 391.845 128.224 391.173 130.752 389.701L176 363.557V415.845C176 424.677 183.168 431.845 192 431.845C200.832 431.845 208 424.677 208 415.845V363.557L253.28 389.701C255.808 391.173 258.56 391.845 261.28 391.845C266.816 391.845 272.192 388.965 275.168 383.845C279.584 376.197 276.96 366.405 269.312 361.989L223.968 335.845L269.28 309.701C276.928 305.285 279.552 295.493 275.136 287.845Z" fill="#CFD8DC"/>
<path d="M417.568 457.989L399.968 447.845L417.568 437.701C425.216 433.285 427.84 423.525 423.424 415.845C419.008 408.165 409.216 405.541 401.568 409.989L384 420.133V399.845C384 391.013 376.832 383.845 368 383.845C359.168 383.845 352 391.013 352 399.845V420.133L334.432 409.989C326.816 405.573 316.992 408.197 312.608 415.845C308.16 423.493 310.784 433.285 318.464 437.701L336.032 447.845L318.432 457.989C310.784 462.405 308.16 472.197 312.608 479.845C315.552 484.965 320.96 487.845 326.464 487.845C329.184 487.845 331.936 487.173 334.464 485.701L352 475.557V495.845C352 504.677 359.168 511.845 368 511.845C376.832 511.845 384 504.677 384 495.845V475.557L401.568 485.701C404.096 487.173 406.848 487.845 409.568 487.845C415.072 487.845 420.48 484.965 423.424 479.845C427.84 472.197 425.216 462.405 417.568 457.989Z" fill="#CFD8DC"/>
</svg>
